<svg width="512" height="512" version="1.1" xmlns="http://www.w3.org/2000/svg" desc="Created with imagetracer.js version 1.2.6" ><path fill="rgb(0,0,0)" stroke="rgb(0,0,0)" stroke-width="1" opacity="0" d="M 0 0 L 180 0.5 L 137.5 2 L 136.5 3 L 116.5 5 L 97.5 10 Q 63 21.5 41 45.5 Q 25.5 61.5 16 83.5 L 9 103.5 L 4 128.5 L 3 149.5 L 2 150.5 L 2 175.5 L 1 176.5 L 1 336.5 L 2 337.5 L 2 362.5 L 3 363.5 L 4 384.5 L 7 401.5 L 13 421.5 Q 25.1 453.4 48.5 474 Q 70.9 494.6 104.5 504 L 137.5 510 L 180 511.5 L 0 512 L 0 0 Z " /><path fill="rgb(0,0,0)" stroke="rgb(0,0,0)" stroke-width="1" opacity="0" d="M 333.5 0 L 512 0 L 512 150.5 L 511 150.5 L 511 137.5 L 510 136.5 L 509 121.5 L 505 103.5 L 498 83.5 Q 484.3 52.7 459.5 33 Q 438.8 16.2 409.5 8 L 375.5 2 L 333.5 1 L 333.5 0 Z " /><path fill="rgb(0,0,0)" stroke="rgb(0,0,0)" stroke-width="1" opacity="0" d="M 166.5 47 L 347.5 47 L 348.5 48 L 377.5 49 L 394.5 52 L 416.5 60 Q 432.8 68.8 444 82.5 Q 452.1 92.4 457 105.5 L 462 121.5 L 464 132.5 L 464 140.5 L 465 141.5 L 466 185.5 L 467 186.5 L 467 326.5 L 466 327.5 L 465 371.5 L 460 398.5 Q 451.4 426.9 430.5 443 Q 419.8 451.8 405.5 457 L 391.5 461 L 381.5 463 L 373.5 463 L 372.5 464 L 332.5 465 L 331.5 466 L 182.5 466 L 181.5 465 L 141.5 464 L 114.5 459 Q 86.1 450.4 70 429.5 Q 61.8 419.7 57 406.5 L 52 389.5 L 50 378.5 L 50 370.5 L 49 369.5 L 48 311.5 L 47 310.5 L 47 202.5 L 48 201.5 L 49 143.5 L 54 114.5 Q 61.9 87.9 80.5 72 Q 95 59 116.5 53 L 136.5 49 L 165.5 48 L 166.5 47 Z M 387 89 L 375 95 Q 366 102 363 115 L 364 129 L 371 141 Q 377 148 389 150 Q 405 151 413 144 Q 421 138 424 127 L 424 113 L 419 102 L 407 91 Q 399 87 387 89 Z M 242 125 L 222 129 L 205 135 Q 187 143 174 154 Q 149 174 135 206 L 129 224 L 126 240 L 126 253 L 125 254 L 127 279 L 133 302 Q 143 329 162 348 Q 180 367 207 378 L 225 384 L 241 387 L 254 387 L 255 388 L 280 386 L 300 381 Q 323 373 341 358 Q 359 342 372 321 Q 379 307 384 292 L 388 272 L 388 241 L 384 221 Q 376 192 359 173 Q 339 149 310 135 L 280 126 Q 274 128 273 125 L 242 125 Z " /><path fill="rgb(0,0,0)" stroke="rgb(0,0,0)" stroke-width="1" opacity="0" d="M 246.5 171 L 267.5 171 L 287.5 176 Q 309.2 184.8 323 201.5 Q 334.5 215 340 234.5 L 342 245.5 L 342 266.5 Q 335.8 303.3 311.5 322 Q 298.1 333.6 278.5 339 L 268.5 341 L 245.5 341 Q 208.7 334.3 190 309.5 Q 180.4 297.6 175 281.5 L 172 267.5 L 172 244.5 Q 178.5 208.5 202.5 190 L 219.5 179 L 235.5 173 L 246.5 171 Z " /><path fill="rgb(0,0,0)" stroke="rgb(0,0,0)" stroke-width="1" opacity="0" d="M 511.5 357 L 512 512 L 334 511.5 L 361.5 511 L 362.5 510 L 384.5 509 L 401.5 506 L 424.5 499 Q 457.3 485.8 478 460.5 Q 495.3 440.3 504 411.5 L 510 382.5 L 511.5 357 Z " /><path fill="rgb(0,0,0)" stroke="rgb(0,0,0)" stroke-width="1" opacity="0.9921568627450981" d="M 180.5 0 L 332.5 0 L 333.5 1 L 375.5 2 L 376.5 3 L 384.5 3 L 385.5 4 L 396.5 5 Q 451.3 16.2 480 53.5 Q 492.4 68.6 500 88.5 L 507 111.5 L 510 128.5 L 510 136.5 L 511 137.5 L 511 150.5 L 512 151.5 L 512 356.5 L 511 357.5 L 510 382.5 L 507 399.5 L 497 430.5 Q 483.5 459 460.5 478 Q 446.8 489.3 429.5 497 L 409.5 504 L 384.5 509 L 362.5 510 L 361.5 511 L 334.5 511 L 333.5 512 L 180.5 512 L 179.5 511 L 151.5 511 L 150.5 510 L 129.5 509 L 128.5 508 L 116.5 507 L 94.5 501 Q 60.6 488.9 39 464.5 Q 24 448.5 15 426.5 L 8 405.5 L 4 384.5 L 3 363.5 L 2 362.5 L 2 337.5 L 1 336.5 L 1 176.5 L 2 175.5 L 3 136.5 L 4 135.5 L 6 115.5 L 11 96.5 Q 16.9 78.9 26 64.5 L 45.5 41 Q 66.3 20.3 97.5 10 L 116.5 5 L 136.5 3 L 137.5 2 L 179.5 1 L 180.5 0 Z M 167 47 L 166 48 L 137 49 L 117 53 Q 95 59 81 72 Q 62 88 54 115 L 49 144 L 48 202 L 47 203 L 47 311 L 48 312 L 49 370 L 50 371 L 50 379 L 52 390 L 57 407 Q 62 420 70 430 Q 86 450 115 459 L 142 464 L 182 465 L 183 466 L 332 466 L 333 465 L 373 464 L 374 463 L 382 463 L 392 461 L 406 457 Q 420 452 431 443 Q 451 427 460 399 L 465 372 L 466 328 L 467 327 L 467 187 L 466 186 L 465 142 L 464 141 L 464 133 L 462 122 L 457 106 Q 452 92 444 83 Q 433 69 417 60 L 395 52 L 378 49 L 349 48 L 348 47 L 167 47 Z " /><path fill="rgb(0,0,0)" stroke="rgb(0,0,0)" stroke-width="1" opacity="0.9921568627450981" d="M 386.5 89 Q 399.3 87.3 406.5 91 L 419 101.5 L 424 112.5 L 424 126.5 Q 420.6 137.6 412.5 144 Q 404.5 151 388.5 150 Q 377.3 147.7 371 140.5 L 364 128.5 L 363 114.5 Q 365.6 101.6 374.5 95 L 386.5 89 Z " /><path fill="rgb(0,0,0)" stroke="rgb(0,0,0)" stroke-width="1" opacity="0.9921568627450981" d="M 241.5 125 L 272.5 125 Q 274 127.5 279.5 126 L 309.5 135 Q 339.5 148.5 359 172.5 Q 375.6 192.4 384 220.5 L 388 240.5 L 388 271.5 L 384 291.5 Q 379.5 307.5 372 320.5 Q 359.5 342.5 340.5 358 Q 323.2 372.7 299.5 381 L 279.5 386 L 254.5 388 L 253.5 387 L 240.5 387 L 224.5 384 L 206.5 378 Q 180.3 366.7 162 347.5 Q 143.4 328.6 133 301.5 L 127 278.5 L 125 253.5 L 126 252.5 L 126 239.5 L 129 223.5 L 135 205.5 Q 148.6 174.1 173.5 154 Q 187.2 142.7 204.5 135 L 221.5 129 L 241.5 125 Z M 247 171 L 236 173 L 220 179 L 203 190 Q 179 209 172 245 L 172 268 L 175 282 Q 180 298 190 310 Q 209 334 246 341 L 269 341 L 279 339 Q 298 334 312 322 Q 336 303 342 267 L 342 246 L 340 235 Q 335 215 323 202 Q 309 185 288 176 L 268 171 L 247 171 Z " /></svg>