<svg width="512" height="512" version="1.1" xmlns="http://www.w3.org/2000/svg" desc="Created with imagetracer.js version 1.2.6" ><path fill="rgb(0,0,0)" stroke="rgb(0,0,0)" stroke-width="1" opacity="0" d="M 0 0 L 512 0 L 512 512 L 0 512 L 0 0 Z M 66 26 L 47 31 L 32 41 Q 20 52 16 71 L 16 89 L 17 94 Q 21 106 28 115 L 41 125 L 55 131 L 65 133 L 82 133 L 93 131 Q 105 127 114 120 Q 123 112 128 101 L 131 91 L 131 83 L 132 82 Q 131 58 120 46 Q 104 24 66 26 Z M 368 168 L 344 174 L 329 181 L 302 201 L 286 219 L 285 219 L 285 175 L 182 175 L 182 485 L 183 485 L 285 485 L 285 298 Q 288 281 297 271 L 314 256 L 326 251 L 337 249 Q 361 248 374 260 Q 383 268 387 281 L 391 295 L 392 311 L 393 312 L 393 485 L 496 485 L 496 295 L 495 294 L 495 282 L 491 259 L 484 237 Q 476 216 462 202 Q 445 183 420 174 L 405 170 L 392 169 L 391 168 L 368 168 Z M 22 175 L 22 485 L 23 485 L 125 485 L 125 176 L 125 175 L 22 175 Z " /><path fill="rgb(0,0,0)" stroke="rgb(0,0,0)" stroke-width="1" opacity="0.7411764705882353" d="M 65.5 26 L 71 26.5 L 65.5 27 L 65.5 26 Z " /><path fill="rgb(0,0,0)" stroke="rgb(0,0,0)" stroke-width="1" opacity="0.7411764705882353" d="M 77.5 26 L 83 26.5 L 77.5 27 L 77.5 26 Z " /><path fill="rgb(0,0,0)" stroke="rgb(0,0,0)" stroke-width="1" opacity="0.7411764705882353" d="M 42.5 33 L 41.5 35 L 42.5 33 Z " /><path fill="rgb(0,0,0)" stroke="rgb(0,0,0)" stroke-width="1" opacity="0.7411764705882353" d="M 108.5 35 L 109.5 37 L 108.5 35 Z " /><path fill="rgb(0,0,0)" stroke="rgb(0,0,0)" stroke-width="1" opacity="0.7411764705882353" d="M 36.5 37 L 35.5 39 L 36.5 37 Z " /><path fill="rgb(0,0,0)" stroke="rgb(0,0,0)" stroke-width="1" opacity="0.7411764705882353" d="M 112.5 38 L 119.5 46 L 112.5 38 Z " /><path fill="rgb(0,0,0)" stroke="rgb(0,0,0)" stroke-width="1" opacity="0.7411764705882353" d="M 31.5 41 L 29.5 44 L 31.5 41 Z " /><path fill="rgb(0,0,0)" stroke="rgb(0,0,0)" stroke-width="1" opacity="0.7411764705882353" d="M 26.5 47 L 25.5 49 L 26.5 47 Z " /><path fill="rgb(0,0,0)" stroke="rgb(0,0,0)" stroke-width="1" opacity="0.7411764705882353" d="M 121.5 48 L 122.5 50 L 121.5 48 Z " /><path fill="rgb(0,0,0)" stroke="rgb(0,0,0)" stroke-width="1" opacity="0.7411764705882353" d="M 24.5 50 L 23.5 52 L 24.5 50 Z " /><path fill="rgb(0,0,0)" stroke="rgb(0,0,0)" stroke-width="1" opacity="0.7411764705882353" d="M 130.5 69 L 131 71.5 L 130 71.5 L 130.5 69 Z " /><path fill="rgb(0,0,0)" stroke="rgb(0,0,0)" stroke-width="1" opacity="0.7411764705882353" d="M 16.5 70 L 17 72.5 L 16 72.5 L 16.5 70 Z " /><path fill="rgb(0,0,0)" stroke="rgb(0,0,0)" stroke-width="1" opacity="0.7411764705882353" d="M 131.5 78 L 132 81.5 L 131 81.5 L 131.5 78 Z " /><path fill="rgb(0,0,0)" stroke="rgb(0,0,0)" stroke-width="1" opacity="0.7411764705882353" d="M 16.5 86 L 17 88.5 L 16 88.5 L 16.5 86 Z " /><path fill="rgb(0,0,0)" stroke="rgb(0,0,0)" stroke-width="1" opacity="0.7411764705882353" d="M 130.5 87 L 131 90.5 L 130 90.5 L 130.5 87 Z " /><path fill="rgb(0,0,0)" stroke="rgb(0,0,0)" stroke-width="1" opacity="0.7411764705882353" d="M 122.5 109 L 121.5 111 L 122.5 109 Z " /><path fill="rgb(0,0,0)" stroke="rgb(0,0,0)" stroke-width="1" opacity="0.7411764705882353" d="M 25.5 110 L 26.5 112 L 25.5 110 Z " /><path fill="rgb(0,0,0)" stroke="rgb(0,0,0)" stroke-width="1" opacity="0.7411764705882353" d="M 119.5 113 L 113.5 120 L 119.5 113 Z " /><path fill="rgb(0,0,0)" stroke="rgb(0,0,0)" stroke-width="1" opacity="0.7411764705882353" d="M 28.5 114 L 32.5 119 L 28.5 114 Z " /><path fill="rgb(0,0,0)" stroke="rgb(0,0,0)" stroke-width="1" opacity="0.7411764705882353" d="M 36.5 121 L 37.5 123 L 36.5 121 Z " /><path fill="rgb(0,0,0)" stroke="rgb(0,0,0)" stroke-width="1" opacity="0.7411764705882353" d="M 110.5 121 L 109.5 123 L 110.5 121 Z " /><path fill="rgb(0,0,0)" stroke="rgb(0,0,0)" stroke-width="1" opacity="0.7411764705882353" d="M 39.5 123 L 40.5 125 L 39.5 123 Z " /><path fill="rgb(0,0,0)" stroke="rgb(0,0,0)" stroke-width="1" opacity="0.7411764705882353" d="M 107.5 123 L 106.5 125 L 107.5 123 Z " /><path fill="rgb(0,0,0)" stroke="rgb(0,0,0)" stroke-width="1" opacity="0.7411764705882353" d="M 64.5 132 L 71 132.5 L 64.5 133 L 64.5 132 Z " /><path fill="rgb(0,0,0)" stroke="rgb(0,0,0)" stroke-width="1" opacity="0.7411764705882353" d="M 75.5 132 L 82 132.5 L 75.5 133 L 75.5 132 Z " /><path fill="rgb(0,0,0)" stroke="rgb(0,0,0)" stroke-width="1" opacity="0.7411764705882353" d="M 367.5 168 L 372 168.5 L 367.5 169 L 367.5 168 Z " /><path fill="rgb(0,0,0)" stroke="rgb(0,0,0)" stroke-width="1" opacity="0.7411764705882353" d="M 384.5 168 L 391 168.5 L 384.5 169 L 384.5 168 Z " /><path fill="rgb(0,0,0)" stroke="rgb(0,0,0)" stroke-width="1" opacity="0.7411764705882353" d="M 360.5 169 L 363 169.5 L 360.5 170 L 360.5 169 Z " /><path fill="rgb(0,0,0)" stroke="rgb(0,0,0)" stroke-width="1" opacity="0.7411764705882353" d="M 396.5 169 L 399 169.5 L 396.5 170 L 396.5 169 Z " /><path fill="rgb(0,0,0)" stroke="rgb(0,0,0)" stroke-width="1" opacity="0.7411764705882353" d="M 402.5 170 L 405 170.5 L 402.5 171 L 402.5 170 Z " /><path fill="rgb(0,0,0)" stroke="rgb(0,0,0)" stroke-width="1" opacity="0.7411764705882353" d="M 22.5 175 L 124.5 175 L 125 175.5 L 125 485 L 22 484.5 L 124 484 L 124 176.5 L 123.5 176 L 22.5 176 L 22.5 175 Z " /><path fill="rgb(0,0,0)" stroke="rgb(0,0,0)" stroke-width="1" opacity="0.7411764705882353" d="M 182.5 175 L 285 175 L 285 219.5 L 284 219.5 L 284 176 L 182.5 176 L 182.5 175 Z " /><path fill="rgb(0,0,0)" stroke="rgb(0,0,0)" stroke-width="1" opacity="0.7411764705882353" d="M 328.5 181 L 327.5 183 L 328.5 181 Z " /><path fill="rgb(0,0,0)" stroke="rgb(0,0,0)" stroke-width="1" opacity="0.7411764705882353" d="M 435.5 181 L 436.5 183 L 435.5 181 Z " /><path fill="rgb(0,0,0)" stroke="rgb(0,0,0)" stroke-width="1" opacity="0.7411764705882353" d="M 323.5 184 L 322.5 186 L 323.5 184 Z " /><path fill="rgb(0,0,0)" stroke="rgb(0,0,0)" stroke-width="1" opacity="0.7411764705882353" d="M 320.5 186 L 319.5 188 L 320.5 186 Z " /><path fill="rgb(0,0,0)" stroke="rgb(0,0,0)" stroke-width="1" opacity="0.7411764705882353" d="M 317.5 188 L 316.5 190 L 317.5 188 Z " /><path fill="rgb(0,0,0)" stroke="rgb(0,0,0)" stroke-width="1" opacity="0.7411764705882353" d="M 446.5 188 L 447.5 190 L 446.5 188 Z " /><path fill="rgb(0,0,0)" stroke="rgb(0,0,0)" stroke-width="1" opacity="0.7411764705882353" d="M 449.5 190 L 451.5 193 L 449.5 190 Z " /><path fill="rgb(0,0,0)" stroke="rgb(0,0,0)" stroke-width="1" opacity="0.7411764705882353" d="M 313.5 191 L 312.5 193 L 313.5 191 Z " /><path fill="rgb(0,0,0)" stroke="rgb(0,0,0)" stroke-width="1" opacity="0.7411764705882353" d="M 309.5 194 L 306.5 198 L 309.5 194 Z " /><path fill="rgb(0,0,0)" stroke="rgb(0,0,0)" stroke-width="1" opacity="0.7411764705882353" d="M 456.5 196 L 461.5 202 L 456.5 196 Z " /><path fill="rgb(0,0,0)" stroke="rgb(0,0,0)" stroke-width="1" opacity="0.7411764705882353" d="M 301.5 201 L 292.5 211 L 301.5 201 Z " /><path fill="rgb(0,0,0)" stroke="rgb(0,0,0)" stroke-width="1" opacity="0.7411764705882353" d="M 465.5 206 L 467.5 209 L 465.5 206 Z " /><path fill="rgb(0,0,0)" stroke="rgb(0,0,0)" stroke-width="1" opacity="0.7411764705882353" d="M 469.5 211 L 470.5 213 L 469.5 211 Z " /><path fill="rgb(0,0,0)" stroke="rgb(0,0,0)" stroke-width="1" opacity="0.7411764705882353" d="M 289.5 214 L 286.5 218 L 289.5 214 Z " /><path fill="rgb(0,0,0)" stroke="rgb(0,0,0)" stroke-width="1" opacity="0.7411764705882353" d="M 471.5 214 L 472.5 216 L 471.5 214 Z " /><path fill="rgb(0,0,0)" stroke="rgb(0,0,0)" stroke-width="1" opacity="0.7411764705882353" d="M 332.5 249 L 336 249.5 L 332.5 250 L 332.5 249 Z " /><path fill="rgb(0,0,0)" stroke="rgb(0,0,0)" stroke-width="1" opacity="0.7411764705882353" d="M 346.5 249 L 350 249.5 L 346.5 250 L 346.5 249 Z " /><path fill="rgb(0,0,0)" stroke="rgb(0,0,0)" stroke-width="1" opacity="0.7411764705882353" d="M 367.5 255 L 368.5 257 L 367.5 255 Z " /><path fill="rgb(0,0,0)" stroke="rgb(0,0,0)" stroke-width="1" opacity="0.7411764705882353" d="M 312.5 256 L 311.5 258 L 312.5 256 Z " /><path fill="rgb(0,0,0)" stroke="rgb(0,0,0)" stroke-width="1" opacity="0.7411764705882353" d="M 370.5 257 L 372.5 260 L 370.5 257 Z " /><path fill="rgb(0,0,0)" stroke="rgb(0,0,0)" stroke-width="1" opacity="0.7411764705882353" d="M 309.5 258 L 308.5 260 L 309.5 258 Z " /><path fill="rgb(0,0,0)" stroke="rgb(0,0,0)" stroke-width="1" opacity="0.7411764705882353" d="M 305.5 261 L 298.5 269 L 305.5 261 Z " /><path fill="rgb(0,0,0)" stroke="rgb(0,0,0)" stroke-width="1" opacity="0.7411764705882353" d="M 377.5 264 L 379.5 267 L 377.5 264 Z " /><path fill="rgb(0,0,0)" stroke="rgb(0,0,0)" stroke-width="1" opacity="0.7411764705882353" d="M 492.5 268 L 493 270.5 L 492 270.5 L 492.5 268 Z " /><path fill="rgb(0,0,0)" stroke="rgb(0,0,0)" stroke-width="1" opacity="0.7411764705882353" d="M 296.5 271 L 295.5 273 L 296.5 271 Z " /><path fill="rgb(0,0,0)" stroke="rgb(0,0,0)" stroke-width="1" opacity="0.7411764705882353" d="M 382.5 271 L 383.5 273 L 382.5 271 Z " /><path fill="rgb(0,0,0)" stroke="rgb(0,0,0)" stroke-width="1" opacity="0.7411764705882353" d="M 294.5 274 L 293.5 276 L 294.5 274 Z " /><path fill="rgb(0,0,0)" stroke="rgb(0,0,0)" stroke-width="1" opacity="0.7411764705882353" d="M 493.5 274 L 494 276.5 L 493 276.5 L 493.5 274 Z " /><path fill="rgb(0,0,0)" stroke="rgb(0,0,0)" stroke-width="1" opacity="0.7411764705882353" d="M 291.5 279 L 290.5 281 L 291.5 279 Z " /><path fill="rgb(0,0,0)" stroke="rgb(0,0,0)" stroke-width="1" opacity="0.7411764705882353" d="M 494.5 281 L 495 286.5 L 494 286.5 L 494.5 281 Z " /><path fill="rgb(0,0,0)" stroke="rgb(0,0,0)" stroke-width="1" opacity="0.7411764705882353" d="M 285.5 294 L 286 296.5 L 285 296.5 L 285.5 294 Z " /><path fill="rgb(0,0,0)" stroke="rgb(0,0,0)" stroke-width="1" opacity="0.7411764705882353" d="M 495.5 294 L 496 485 L 393 484.5 L 495 484 L 495.5 294 Z " /><path fill="rgb(0,0,0)" stroke="rgb(0,0,0)" stroke-width="1" opacity="0.7411764705882353" d="M 391.5 297 L 392 299.5 L 391 299.5 L 391.5 297 Z " /><path fill="rgb(0,0,0)" stroke="rgb(0,0,0)" stroke-width="1" opacity="0.7411764705882353" d="M 284.5 303 L 285 485 L 182 484.5 L 284 484 L 284.5 303 Z " /><path fill="rgb(0,0,0)" stroke="rgb(0,0,0)" stroke-width="1" opacity="0.7411764705882353" d="M 392.5 304 L 393 310.5 L 392 310.5 L 392.5 304 Z " /><path fill="rgb(0,0,0)" stroke="rgb(0,0,0)" stroke-width="1" opacity="1" d="M 71.5 26 L 86.5 27 L 97.5 30 Q 112.3 35.7 121 47.5 L 129 63.5 L 131 72.5 L 131 86.5 L 125 105.5 L 111.5 121 Q 102.8 127.8 90.5 131 L 71.5 133 L 70.5 132 L 60.5 132 L 49.5 129 Q 35.6 123.4 27 112.5 L 18 95.5 L 16 85.5 L 16 73.5 Q 19.7 50.7 34.5 39 L 50.5 30 L 61.5 27 L 70.5 27 L 71.5 26 Z " /><path fill="rgb(0,0,0)" stroke="rgb(0,0,0)" stroke-width="1" opacity="1" d="M 372.5 168 L 395.5 169 L 423.5 176 Q 448.9 186.1 465 205.5 Q 476 218.5 483 235.5 L 489 252.5 L 494 277.5 L 494 286.5 L 495 287.5 L 495 484 L 393 484 L 393 304.5 L 392 303.5 L 391 292.5 L 386 276.5 Q 380.4 264.6 370.5 257 Q 357.5 247 332.5 249 Q 309.8 253.3 298 268.5 L 289 282.5 L 285 294.5 L 285 302.5 L 284 303.5 L 284 484 L 182.5 484 L 182 483.5 L 182 176 L 284 176 L 284 219.5 L 290 214.5 L 305.5 198 Q 320.4 184.9 339.5 176 L 358.5 170 L 371.5 169 L 372.5 168 Z " /><path fill="rgb(0,0,0)" stroke="rgb(0,0,0)" stroke-width="1" opacity="1" d="M 22 176 L 123.5 176 L 124 176.5 L 124 484 L 22.5 484 L 22 483.5 L 22 176 Z " /></svg>