<svg width="512" height="512" version="1.1" xmlns="http://www.w3.org/2000/svg" desc="Created with imagetracer.js version 1.2.6" ><path fill="rgb(0,0,0)" stroke="rgb(0,0,0)" stroke-width="1" opacity="0.9137254901960784" d="M 343.5 58 L 353 58.5 L 343.5 59 L 343.5 58 Z " /><path fill="rgb(0,0,0)" stroke="rgb(0,0,0)" stroke-width="1" opacity="0.9137254901960784" d="M 406.5 77 L 407.5 79 L 406.5 77 Z " /><path fill="rgb(0,0,0)" stroke="rgb(0,0,0)" stroke-width="1" opacity="0.9137254901960784" d="M 51.5 79 L 52.5 81 L 51.5 79 Z " /><path fill="rgb(0,0,0)" stroke="rgb(0,0,0)" stroke-width="1" opacity="0.9137254901960784" d="M 411.5 81 L 413.5 84 L 411.5 81 Z " /><path fill="rgb(0,0,0)" stroke="rgb(0,0,0)" stroke-width="1" opacity="0.9137254901960784" d="M 282.5 83 L 275.5 91 L 282.5 83 Z " /><path fill="rgb(0,0,0)" stroke="rgb(0,0,0)" stroke-width="1" opacity="0.9137254901960784" d="M 57.5 86 L 61.5 91 L 57.5 86 Z " /><path fill="rgb(0,0,0)" stroke="rgb(0,0,0)" stroke-width="1" opacity="0.9137254901960784" d="M 271.5 95 L 270.5 97 L 271.5 95 Z " /><path fill="rgb(0,0,0)" stroke="rgb(0,0,0)" stroke-width="1" opacity="0.9137254901960784" d="M 465.5 96 L 464.5 98 L 465.5 96 Z " /><path fill="rgb(0,0,0)" stroke="rgb(0,0,0)" stroke-width="1" opacity="0.9137254901960784" d="M 268.5 99 L 267.5 101 L 268.5 99 Z " /><path fill="rgb(0,0,0)" stroke="rgb(0,0,0)" stroke-width="1" opacity="0.9137254901960784" d="M 75.5 104 L 79.5 109 L 75.5 104 Z " /><path fill="rgb(0,0,0)" stroke="rgb(0,0,0)" stroke-width="1" opacity="0.9137254901960784" d="M 451.5 110 L 450.5 112 L 451.5 110 Z " /><path fill="rgb(0,0,0)" stroke="rgb(0,0,0)" stroke-width="1" opacity="0.9137254901960784" d="M 490.5 111 L 489.5 113 L 490.5 111 Z " /><path fill="rgb(0,0,0)" stroke="rgb(0,0,0)" stroke-width="1" opacity="0.9137254901960784" d="M 84.5 112 L 86.5 115 L 84.5 112 Z " /><path fill="rgb(0,0,0)" stroke="rgb(0,0,0)" stroke-width="1" opacity="0.9137254901960784" d="M 443.5 116 L 442.5 118 L 443.5 116 Z " /><path fill="rgb(0,0,0)" stroke="rgb(0,0,0)" stroke-width="1" opacity="0.9137254901960784" d="M 90.5 117 L 91.5 119 L 90.5 117 Z " /><path fill="rgb(0,0,0)" stroke="rgb(0,0,0)" stroke-width="1" opacity="0.9137254901960784" d="M 36.5 118 L 37 121.5 L 36 121.5 L 36.5 118 Z " /><path fill="rgb(0,0,0)" stroke="rgb(0,0,0)" stroke-width="1" opacity="0.9137254901960784" d="M 440.5 118 L 439.5 120 L 440.5 118 Z " /><path fill="rgb(0,0,0)" stroke="rgb(0,0,0)" stroke-width="1" opacity="0.9137254901960784" d="M 95.5 121 L 96.5 123 L 95.5 121 Z " /><path fill="rgb(0,0,0)" stroke="rgb(0,0,0)" stroke-width="1" opacity="0.9137254901960784" d="M 482.5 121 L 481.5 123 L 482.5 121 Z " /><path fill="rgb(0,0,0)" stroke="rgb(0,0,0)" stroke-width="1" opacity="0.9137254901960784" d="M 99.5 124 L 100.5 126 L 99.5 124 Z " /><path fill="rgb(0,0,0)" stroke="rgb(0,0,0)" stroke-width="1" opacity="0.9137254901960784" d="M 476.5 128 L 465.5 140 L 476.5 128 Z " /><path fill="rgb(0,0,0)" stroke="rgb(0,0,0)" stroke-width="1" opacity="0.9137254901960784" d="M 106.5 129 L 107.5 131 L 106.5 129 Z " /><path fill="rgb(0,0,0)" stroke="rgb(0,0,0)" stroke-width="1" opacity="0.9137254901960784" d="M 36.5 130 L 37 133.5 L 36 133.5 L 36.5 130 Z " /><path fill="rgb(0,0,0)" stroke="rgb(0,0,0)" stroke-width="1" opacity="0.9137254901960784" d="M 458.5 145 L 457.5 147 L 458.5 145 Z " /><path fill="rgb(0,0,0)" stroke="rgb(0,0,0)" stroke-width="1" opacity="0.9137254901960784" d="M 446.5 155 L 447 165.5 L 446 165.5 L 446.5 155 Z " /><path fill="rgb(0,0,0)" stroke="rgb(0,0,0)" stroke-width="1" opacity="0.9137254901960784" d="M 446.5 170 L 447 178.5 L 446 178.5 L 446.5 170 Z " /><path fill="rgb(0,0,0)" stroke="rgb(0,0,0)" stroke-width="1" opacity="0.9137254901960784" d="M 56.5 185 L 57.5 187 L 56.5 185 Z " /><path fill="rgb(0,0,0)" stroke="rgb(0,0,0)" stroke-width="1" opacity="0.9137254901960784" d="M 61.5 191 L 68.5 199 L 61.5 191 Z " /><path fill="rgb(0,0,0)" stroke="rgb(0,0,0)" stroke-width="1" opacity="0.9137254901960784" d="M 35 196 L 37 196.5 L 35.5 202 L 35 196 Z " /><path fill="rgb(0,0,0)" stroke="rgb(0,0,0)" stroke-width="1" opacity="0.9137254901960784" d="M 73.5 202 L 74.5 204 L 73.5 202 Z " /><path fill="rgb(0,0,0)" stroke="rgb(0,0,0)" stroke-width="1" opacity="0.9137254901960784" d="M 57.5 258 L 58.5 260 L 57.5 258 Z " /><path fill="rgb(0,0,0)" stroke="rgb(0,0,0)" stroke-width="1" opacity="0.9137254901960784" d="M 70.5 271 L 72.5 274 L 70.5 271 Z " /><path fill="rgb(0,0,0)" stroke="rgb(0,0,0)" stroke-width="1" opacity="0.9137254901960784" d="M 75.5 275 L 76.5 277 L 75.5 275 Z " /><path fill="rgb(0,0,0)" stroke="rgb(0,0,0)" stroke-width="1" opacity="0.9137254901960784" d="M 81.5 279 L 82.5 281 L 81.5 279 Z " /><path fill="rgb(0,0,0)" stroke="rgb(0,0,0)" stroke-width="1" opacity="0.9137254901960784" d="M 112.5 292 Q 114.8 291.3 114 293.5 L 112.5 292 Z " /><path fill="rgb(0,0,0)" stroke="rgb(0,0,0)" stroke-width="1" opacity="0.9137254901960784" d="M 71.5 295 L 70.5 297 L 71.5 295 Z " /><path fill="rgb(0,0,0)" stroke="rgb(0,0,0)" stroke-width="1" opacity="0.9137254901960784" d="M 78.5 296 L 81 296.5 L 78.5 297 L 78.5 296 Z " /><path fill="rgb(0,0,0)" stroke="rgb(0,0,0)" stroke-width="1" opacity="0.9137254901960784" d="M 91.5 331 L 97.5 338 L 91.5 331 Z " /><path fill="rgb(0,0,0)" stroke="rgb(0,0,0)" stroke-width="1" opacity="0.9137254901960784" d="M 102.5 341 L 103.5 343 L 102.5 341 Z " /><path fill="rgb(0,0,0)" stroke="rgb(0,0,0)" stroke-width="1" opacity="0.9137254901960784" d="M 385.5 343 L 384.5 345 L 385.5 343 Z " /><path fill="rgb(0,0,0)" stroke="rgb(0,0,0)" stroke-width="1" opacity="0.9137254901960784" d="M 109.5 346 L 110.5 348 L 109.5 346 Z " /><path fill="rgb(0,0,0)" stroke="rgb(0,0,0)" stroke-width="1" opacity="0.9137254901960784" d="M 381.5 348 L 380.5 350 L 381.5 348 Z " /><path fill="rgb(0,0,0)" stroke="rgb(0,0,0)" stroke-width="1" opacity="0.9137254901960784" d="M 377.5 353 L 375.5 356 L 377.5 353 Z " /><path fill="rgb(0,0,0)" stroke="rgb(0,0,0)" stroke-width="1" opacity="0.9137254901960784" d="M 154.5 362 L 157 362.5 L 154.5 363 L 154.5 362 Z " /><path fill="rgb(0,0,0)" stroke="rgb(0,0,0)" stroke-width="1" opacity="0.9137254901960784" d="M 161.5 363 L 160.5 365 L 161.5 363 Z " /><path fill="rgb(0,0,0)" stroke="rgb(0,0,0)" stroke-width="1" opacity="0.9137254901960784" d="M 368.5 363 L 356.5 376 L 368.5 363 Z " /><path fill="rgb(0,0,0)" stroke="rgb(0,0,0)" stroke-width="1" opacity="0.9137254901960784" d="M 153.5 369 L 152.5 371 L 153.5 369 Z " /><path fill="rgb(0,0,0)" stroke="rgb(0,0,0)" stroke-width="1" opacity="0.9137254901960784" d="M 349.5 381 L 347.5 384 L 349.5 381 Z " /><path fill="rgb(0,0,0)" stroke="rgb(0,0,0)" stroke-width="1" opacity="0.9137254901960784" d="M 342.5 387 L 341.5 389 L 342.5 387 Z " /><path fill="rgb(0,0,0)" stroke="rgb(0,0,0)" stroke-width="1" opacity="0.9137254901960784" d="M 337.5 391 L 336.5 393 L 337.5 391 Z " /><path fill="rgb(0,0,0)" stroke="rgb(0,0,0)" stroke-width="1" opacity="0.9137254901960784" d="M 333.5 394 L 332.5 396 L 333.5 394 Z " /><path fill="rgb(0,0,0)" stroke="rgb(0,0,0)" stroke-width="1" opacity="0.9137254901960784" d="M 320.5 403 L 319.5 405 L 320.5 403 Z " /><path fill="rgb(0,0,0)" stroke="rgb(0,0,0)" stroke-width="1" opacity="0.9137254901960784" d="M 28.5 405 L 33 405.5 L 28.5 406 L 28.5 405 Z " /><path fill="rgb(0,0,0)" stroke="rgb(0,0,0)" stroke-width="1" opacity="0.9137254901960784" d="M 44.5 405 L 50 405.5 L 44.5 406 L 44.5 405 Z " /><path fill="rgb(0,0,0)" stroke="rgb(0,0,0)" stroke-width="1" opacity="0.9137254901960784" d="M 138.5 446 L 141 446.5 L 138.5 447 L 138.5 446 Z " /><path fill="rgb(0,0,0)" stroke="rgb(0,0,0)" stroke-width="1" opacity="0.9137254901960784" d="M 151.5 447 L 155 447.5 L 151.5 448 L 151.5 447 Z " /><path fill="rgb(0,0,0)" stroke="rgb(0,0,0)" stroke-width="1" opacity="0.9137254901960784" d="M 179.5 447 L 184 447.5 L 179.5 448 L 179.5 447 Z " /><path fill="rgb(0,0,0)" stroke="rgb(0,0,0)" stroke-width="1" opacity="1" d="M 335.5 59 L 360.5 59 L 381.5 64 Q 405 73 420.5 90 Q 454.9 82.9 480.5 67 L 481 69.5 Q 471.3 94.3 452.5 110 L 439 119.5 L 444.5 120 L 468.5 115 L 493.5 106 L 492 108.5 Q 478.4 129.4 459.5 145 L 446 155.5 L 447 169.5 L 446 170.5 L 445 199.5 L 440 228.5 Q 431.9 262.9 418 291.5 Q 392.2 344.2 350.5 381 Q 316.2 411.7 269.5 430 L 248.5 437 L 211.5 445 L 195.5 446 L 194.5 447 L 179.5 447 L 178.5 448 L 155.5 448 L 154.5 447 L 141.5 447 L 140.5 446 L 124.5 445 L 88.5 437 Q 49.6 425.4 19 405.5 L 27.5 405 L 28.5 406 L 49.5 406 L 50.5 405 L 61.5 405 L 62.5 404 L 80.5 402 L 113.5 392 Q 141 381 162 363.5 L 138.5 360 L 124.5 355 Q 101.7 344.8 87 326.5 Q 76.2 313.3 70 295.5 L 71.5 296 L 97.5 297 L 114 294 Q 115.3 290.3 109.5 292 Q 77.6 282.9 59 260.5 Q 48.4 248.6 42 232.5 L 37 215.5 L 36 197 L 56.5 205 L 72.5 208 L 79.5 208 L 77.5 205 L 72.5 202 L 58 187.5 Q 48 175.5 42 159.5 L 37 139.5 L 36 122.5 L 37 121.5 L 38 105.5 L 41 94.5 L 49.5 77 Q 62.7 94.8 79.5 109 Q 114.4 140.6 161.5 160 L 202.5 173 L 230.5 178 L 252.5 179 L 252 177.5 L 251 165.5 L 250 164.5 L 250 148.5 L 253 131.5 L 263 107.5 Q 272.4 91.4 286.5 80 L 307.5 67 L 324.5 61 L 335.5 59 Z " /><path fill="rgb(0,0,0)" stroke="rgb(0,0,0)" stroke-width="1" opacity="0" d="M 0 0 L 512 0 L 512 512 L 0 512 L 0 0 Z M 338 58 L 319 62 L 311 65 Q 296 71 286 80 Q 268 94 258 116 L 252 133 L 250 143 L 250 155 L 249 156 Q 252 161 250 171 L 252 179 L 229 177 L 202 172 L 159 158 Q 113 139 80 108 Q 63 94 50 76 L 41 93 L 36 114 L 36 138 L 39 153 Q 45 173 57 188 Q 65 199 78 206 L 78 207 L 70 207 L 56 204 L 37 196 L 35 196 L 36 214 L 42 235 Q 48 249 58 261 Q 78 284 112 294 L 101 296 L 77 296 L 70 295 Q 75 314 87 328 Q 103 347 128 357 L 145 362 L 161 364 Q 139 381 112 392 L 82 401 L 65 404 L 56 404 L 55 405 L 25 405 L 24 404 L 16 405 Q 40 420 69 431 L 106 442 L 127 446 L 144 447 L 145 448 L 191 448 L 192 447 L 202 447 L 203 446 L 210 446 L 232 442 L 258 435 Q 313 416 352 381 Q 399 340 425 278 L 436 247 L 443 218 L 444 207 L 445 206 L 445 198 L 446 197 L 446 187 L 447 186 L 447 156 L 461 145 Q 481 128 495 105 L 470 114 L 447 119 L 442 119 L 453 111 Q 474 94 482 66 Q 456 81 423 89 L 421 89 Q 411 79 400 72 L 384 64 L 371 60 L 360 59 L 359 58 L 338 58 Z " /><path fill="rgb(0,0,0)" stroke="rgb(0,0,0)" stroke-width="1" opacity="0.5568627450980392" d="M 337.5 58 L 343 58.5 L 337.5 59 L 337.5 58 Z " /><path fill="rgb(0,0,0)" stroke="rgb(0,0,0)" stroke-width="1" opacity="0.5568627450980392" d="M 353.5 58 L 359 58.5 L 353.5 59 L 353.5 58 Z " /><path fill="rgb(0,0,0)" stroke="rgb(0,0,0)" stroke-width="1" opacity="0.5568627450980392" d="M 363.5 59 L 366 59.5 L 363.5 60 L 363.5 59 Z " /><path fill="rgb(0,0,0)" stroke="rgb(0,0,0)" stroke-width="1" opacity="0.5568627450980392" d="M 293.5 74 L 292.5 76 L 293.5 74 Z " /><path fill="rgb(0,0,0)" stroke="rgb(0,0,0)" stroke-width="1" opacity="0.5568627450980392" d="M 49.5 76 L 50.5 78 L 48 77.5 L 49.5 76 Z " /><path fill="rgb(0,0,0)" stroke="rgb(0,0,0)" stroke-width="1" opacity="0.5568627450980392" d="M 289.5 77 L 288.5 79 L 289.5 77 Z " /><path fill="rgb(0,0,0)" stroke="rgb(0,0,0)" stroke-width="1" opacity="0.5568627450980392" d="M 408.5 78 L 410.5 81 L 408.5 78 Z " /><path fill="rgb(0,0,0)" stroke="rgb(0,0,0)" stroke-width="1" opacity="0.5568627450980392" d="M 285.5 80 L 283.5 83 L 285.5 80 Z " /><path fill="rgb(0,0,0)" stroke="rgb(0,0,0)" stroke-width="1" opacity="0.5568627450980392" d="M 53.5 81 L 56.5 85 L 53.5 81 Z " /><path fill="rgb(0,0,0)" stroke="rgb(0,0,0)" stroke-width="1" opacity="0.5568627450980392" d="M 415.5 84 L 419.5 89 L 415.5 84 Z " /><path fill="rgb(0,0,0)" stroke="rgb(0,0,0)" stroke-width="1" opacity="0.5568627450980392" d="M 470.5 90 L 469.5 92 L 470.5 90 Z " /><path fill="rgb(0,0,0)" stroke="rgb(0,0,0)" stroke-width="1" opacity="0.5568627450980392" d="M 62.5 91 L 74.5 104 L 62.5 91 Z " /><path fill="rgb(0,0,0)" stroke="rgb(0,0,0)" stroke-width="1" opacity="0.5568627450980392" d="M 274.5 91 L 272.5 94 L 274.5 91 Z " /><path fill="rgb(0,0,0)" stroke="rgb(0,0,0)" stroke-width="1" opacity="0.5568627450980392" d="M 467.5 94 L 466.5 96 L 467.5 94 Z " /><path fill="rgb(0,0,0)" stroke="rgb(0,0,0)" stroke-width="1" opacity="0.5568627450980392" d="M 269.5 97 L 268.5 99 L 269.5 97 Z " /><path fill="rgb(0,0,0)" stroke="rgb(0,0,0)" stroke-width="1" opacity="0.5568627450980392" d="M 463.5 99 L 452.5 111 L 463.5 99 Z " /><path fill="rgb(0,0,0)" stroke="rgb(0,0,0)" stroke-width="1" opacity="0.5568627450980392" d="M 492.5 105 L 495 106.5 L 493 107.5 L 493.5 106 L 492.5 105 Z " /><path fill="rgb(0,0,0)" stroke="rgb(0,0,0)" stroke-width="1" opacity="0.5568627450980392" d="M 37.5 107 L 38 109.5 L 37 109.5 L 37.5 107 Z " /><path fill="rgb(0,0,0)" stroke="rgb(0,0,0)" stroke-width="1" opacity="0.5568627450980392" d="M 80.5 108 L 83.5 112 L 80.5 108 Z " /><path fill="rgb(0,0,0)" stroke="rgb(0,0,0)" stroke-width="1" opacity="0.5568627450980392" d="M 449.5 112 L 448.5 114 L 449.5 112 Z " /><path fill="rgb(0,0,0)" stroke="rgb(0,0,0)" stroke-width="1" opacity="0.5568627450980392" d="M 36.5 113 L 37 117.5 L 36 117.5 L 36.5 113 Z " /><path fill="rgb(0,0,0)" stroke="rgb(0,0,0)" stroke-width="1" opacity="0.5568627450980392" d="M 488.5 114 L 487.5 116 L 488.5 114 Z " /><path fill="rgb(0,0,0)" stroke="rgb(0,0,0)" stroke-width="1" opacity="0.5568627450980392" d="M 88.5 115 L 89.5 117 L 88.5 115 Z " /><path fill="rgb(0,0,0)" stroke="rgb(0,0,0)" stroke-width="1" opacity="0.5568627450980392" d="M 445.5 115 L 444.5 117 L 445.5 115 Z " /><path fill="rgb(0,0,0)" stroke="rgb(0,0,0)" stroke-width="1" opacity="0.5568627450980392" d="M 441.5 118 L 442.5 120 L 440 119.5 L 441.5 118 Z " /><path fill="rgb(0,0,0)" stroke="rgb(0,0,0)" stroke-width="1" opacity="0.5568627450980392" d="M 447.5 118 L 450 118.5 L 447.5 119 L 447.5 118 Z " /><path fill="rgb(0,0,0)" stroke="rgb(0,0,0)" stroke-width="1" opacity="0.5568627450980392" d="M 485.5 118 L 483.5 121 L 485.5 118 Z " /><path fill="rgb(0,0,0)" stroke="rgb(0,0,0)" stroke-width="1" opacity="0.5568627450980392" d="M 93.5 119 L 94.5 121 L 93.5 119 Z " /><path fill="rgb(0,0,0)" stroke="rgb(0,0,0)" stroke-width="1" opacity="0.5568627450980392" d="M 97.5 122 L 98.5 124 L 97.5 122 Z " /><path fill="rgb(0,0,0)" stroke="rgb(0,0,0)" stroke-width="1" opacity="0.5568627450980392" d="M 480.5 124 L 477.5 128 L 480.5 124 Z " /><path fill="rgb(0,0,0)" stroke="rgb(0,0,0)" stroke-width="1" opacity="0.5568627450980392" d="M 101.5 125 L 102.5 127 L 101.5 125 Z " /><path fill="rgb(0,0,0)" stroke="rgb(0,0,0)" stroke-width="1" opacity="0.5568627450980392" d="M 108.5 130 L 109.5 132 L 108.5 130 Z " /><path fill="rgb(0,0,0)" stroke="rgb(0,0,0)" stroke-width="1" opacity="0.5568627450980392" d="M 111.5 132 L 112.5 134 L 111.5 132 Z " /><path fill="rgb(0,0,0)" stroke="rgb(0,0,0)" stroke-width="1" opacity="0.5568627450980392" d="M 36.5 134 L 37 137.5 L 36 137.5 L 36.5 134 Z " /><path fill="rgb(0,0,0)" stroke="rgb(0,0,0)" stroke-width="1" opacity="0.5568627450980392" d="M 464.5 140 L 460.5 145 L 464.5 140 Z " /><path fill="rgb(0,0,0)" stroke="rgb(0,0,0)" stroke-width="1" opacity="0.5568627450980392" d="M 37.5 142 L 38 144.5 L 37 144.5 L 37.5 142 Z " /><path fill="rgb(0,0,0)" stroke="rgb(0,0,0)" stroke-width="1" opacity="0.5568627450980392" d="M 250.5 142 L 251 145.5 L 250 145.5 L 250.5 142 Z " /><path fill="rgb(0,0,0)" stroke="rgb(0,0,0)" stroke-width="1" opacity="0.5568627450980392" d="M 456.5 147 L 454.5 150 L 456.5 147 Z " /><path fill="rgb(0,0,0)" stroke="rgb(0,0,0)" stroke-width="1" opacity="0.5568627450980392" d="M 451.5 151 L 450.5 153 L 451.5 151 Z " /><path fill="rgb(0,0,0)" stroke="rgb(0,0,0)" stroke-width="1" opacity="0.5568627450980392" d="M 249.5 155 L 250 157.5 L 249 157.5 L 249.5 155 Z " /><path fill="rgb(0,0,0)" stroke="rgb(0,0,0)" stroke-width="1" opacity="0.5568627450980392" d="M 250.5 167 L 251 170.5 L 250 170.5 L 250.5 167 Z " /><path fill="rgb(0,0,0)" stroke="rgb(0,0,0)" stroke-width="1" opacity="0.5568627450980392" d="M 218.5 175 L 221 175.5 L 218.5 176 L 218.5 175 Z " /><path fill="rgb(0,0,0)" stroke="rgb(0,0,0)" stroke-width="1" opacity="0.5568627450980392" d="M 225.5 176 L 228 176.5 L 225.5 177 L 225.5 176 Z " /><path fill="rgb(0,0,0)" stroke="rgb(0,0,0)" stroke-width="1" opacity="0.5568627450980392" d="M 50.5 177 L 51.5 179 L 50.5 177 Z " /><path fill="rgb(0,0,0)" stroke="rgb(0,0,0)" stroke-width="1" opacity="0.5568627450980392" d="M 232.5 177 L 236 177.5 L 232.5 178 L 232.5 177 Z " /><path fill="rgb(0,0,0)" stroke="rgb(0,0,0)" stroke-width="1" opacity="0.5568627450980392" d="M 241.5 178 L 247 178.5 L 241.5 179 L 241.5 178 Z " /><path fill="rgb(0,0,0)" stroke="rgb(0,0,0)" stroke-width="1" opacity="0.5568627450980392" d="M 446.5 179 L 447 185.5 L 446 185.5 L 446.5 179 Z " /><path fill="rgb(0,0,0)" stroke="rgb(0,0,0)" stroke-width="1" opacity="0.5568627450980392" d="M 52.5 180 L 53.5 182 L 52.5 180 Z " /><path fill="rgb(0,0,0)" stroke="rgb(0,0,0)" stroke-width="1" opacity="0.5568627450980392" d="M 54.5 183 L 55.5 185 L 54.5 183 Z " /><path fill="rgb(0,0,0)" stroke="rgb(0,0,0)" stroke-width="1" opacity="0.5568627450980392" d="M 57.5 187 L 60.5 191 L 57.5 187 Z " /><path fill="rgb(0,0,0)" stroke="rgb(0,0,0)" stroke-width="1" opacity="0.5568627450980392" d="M 445.5 193 L 446 196.5 L 445 196.5 L 445.5 193 Z " /><path fill="rgb(0,0,0)" stroke="rgb(0,0,0)" stroke-width="1" opacity="0.5568627450980392" d="M 69.5 199 L 71.5 202 L 69.5 199 Z " /><path fill="rgb(0,0,0)" stroke="rgb(0,0,0)" stroke-width="1" opacity="0.5568627450980392" d="M 35.5 202 L 36 206.5 L 35 206.5 L 35.5 202 Z " /><path fill="rgb(0,0,0)" stroke="rgb(0,0,0)" stroke-width="1" opacity="0.5568627450980392" d="M 444.5 202 L 445 205.5 L 444 205.5 L 444.5 202 Z " /><path fill="rgb(0,0,0)" stroke="rgb(0,0,0)" stroke-width="1" opacity="0.5568627450980392" d="M 75.5 204 L 76.5 206 L 75.5 204 Z " /><path fill="rgb(0,0,0)" stroke="rgb(0,0,0)" stroke-width="1" opacity="0.5568627450980392" d="M 66.5 206 L 69 206.5 L 66.5 207 L 66.5 206 Z " /><path fill="rgb(0,0,0)" stroke="rgb(0,0,0)" stroke-width="1" opacity="0.5568627450980392" d="M 78.5 206 L 79 208 L 74 207.5 L 78.5 206 Z " /><path fill="rgb(0,0,0)" stroke="rgb(0,0,0)" stroke-width="1" opacity="0.5568627450980392" d="M 443.5 209 L 444 211.5 L 443 211.5 L 443.5 209 Z " /><path fill="rgb(0,0,0)" stroke="rgb(0,0,0)" stroke-width="1" opacity="0.5568627450980392" d="M 442.5 215 L 443 217.5 L 442 217.5 L 442.5 215 Z " /><path fill="rgb(0,0,0)" stroke="rgb(0,0,0)" stroke-width="1" opacity="0.5568627450980392" d="M 52.5 252 L 53.5 254 L 52.5 252 Z " /><path fill="rgb(0,0,0)" stroke="rgb(0,0,0)" stroke-width="1" opacity="0.5568627450980392" d="M 54.5 255 L 56.5 258 L 54.5 255 Z " /><path fill="rgb(0,0,0)" stroke="rgb(0,0,0)" stroke-width="1" opacity="0.5568627450980392" d="M 58.5 260 L 69.5 272 L 58.5 260 Z " /><path fill="rgb(0,0,0)" stroke="rgb(0,0,0)" stroke-width="1" opacity="0.5568627450980392" d="M 73.5 274 L 74.5 276 L 73.5 274 Z " /><path fill="rgb(0,0,0)" stroke="rgb(0,0,0)" stroke-width="1" opacity="0.5568627450980392" d="M 110.5 292 L 113 293.5 L 111.5 293 L 110.5 292 Z " /><path fill="rgb(0,0,0)" stroke="rgb(0,0,0)" stroke-width="1" opacity="0.5568627450980392" d="M 72.5 295 L 76 295.5 L 72.5 296 L 72.5 295 Z " /><path fill="rgb(0,0,0)" stroke="rgb(0,0,0)" stroke-width="1" opacity="0.5568627450980392" d="M 101.5 295 L 104 295.5 L 101.5 296 L 101.5 295 Z " /><path fill="rgb(0,0,0)" stroke="rgb(0,0,0)" stroke-width="1" opacity="0.5568627450980392" d="M 81.5 296 L 96 296.5 L 81.5 297 L 81.5 296 Z " /><path fill="rgb(0,0,0)" stroke="rgb(0,0,0)" stroke-width="1" opacity="0.5568627450980392" d="M 406.5 313 L 405.5 315 L 406.5 313 Z " /><path fill="rgb(0,0,0)" stroke="rgb(0,0,0)" stroke-width="1" opacity="0.5568627450980392" d="M 81.5 319 L 82.5 321 L 81.5 319 Z " /><path fill="rgb(0,0,0)" stroke="rgb(0,0,0)" stroke-width="1" opacity="0.5568627450980392" d="M 84.5 323 L 85.5 325 L 84.5 323 Z " /><path fill="rgb(0,0,0)" stroke="rgb(0,0,0)" stroke-width="1" opacity="0.5568627450980392" d="M 87.5 327 L 90.5 331 L 87.5 327 Z " /><path fill="rgb(0,0,0)" stroke="rgb(0,0,0)" stroke-width="1" opacity="0.5568627450980392" d="M 395.5 330 L 394.5 332 L 395.5 330 Z " /><path fill="rgb(0,0,0)" stroke="rgb(0,0,0)" stroke-width="1" opacity="0.5568627450980392" d="M 393.5 333 L 392.5 335 L 393.5 333 Z " /><path fill="rgb(0,0,0)" stroke="rgb(0,0,0)" stroke-width="1" opacity="0.5568627450980392" d="M 390.5 337 L 389.5 339 L 390.5 337 Z " /><path fill="rgb(0,0,0)" stroke="rgb(0,0,0)" stroke-width="1" opacity="0.5568627450980392" d="M 98.5 338 L 100.5 341 L 98.5 338 Z " /><path fill="rgb(0,0,0)" stroke="rgb(0,0,0)" stroke-width="1" opacity="0.5568627450980392" d="M 387.5 341 L 386.5 343 L 387.5 341 Z " /><path fill="rgb(0,0,0)" stroke="rgb(0,0,0)" stroke-width="1" opacity="0.5568627450980392" d="M 107.5 345 L 108.5 347 L 107.5 345 Z " /><path fill="rgb(0,0,0)" stroke="rgb(0,0,0)" stroke-width="1" opacity="0.5568627450980392" d="M 384.5 345 L 382.5 348 L 384.5 345 Z " /><path fill="rgb(0,0,0)" stroke="rgb(0,0,0)" stroke-width="1" opacity="0.5568627450980392" d="M 380.5 350 L 378.5 353 L 380.5 350 Z " /><path fill="rgb(0,0,0)" stroke="rgb(0,0,0)" stroke-width="1" opacity="0.5568627450980392" d="M 374.5 357 L 369.5 363 L 374.5 357 Z " /><path fill="rgb(0,0,0)" stroke="rgb(0,0,0)" stroke-width="1" opacity="0.5568627450980392" d="M 144.5 361 L 147 361.5 L 144.5 362 L 144.5 361 Z " /><path fill="rgb(0,0,0)" stroke="rgb(0,0,0)" stroke-width="1" opacity="0.5568627450980392" d="M 150.5 362 L 154 362.5 L 150.5 363 L 150.5 362 Z " /><path fill="rgb(0,0,0)" stroke="rgb(0,0,0)" stroke-width="1" opacity="0.5568627450980392" d="M 158.5 365 L 157.5 367 L 158.5 365 Z " /><path fill="rgb(0,0,0)" stroke="rgb(0,0,0)" stroke-width="1" opacity="0.5568627450980392" d="M 151.5 370 L 150.5 372 L 151.5 370 Z " /><path fill="rgb(0,0,0)" stroke="rgb(0,0,0)" stroke-width="1" opacity="0.5568627450980392" d="M 148.5 372 L 147.5 374 L 148.5 372 Z " /><path fill="rgb(0,0,0)" stroke="rgb(0,0,0)" stroke-width="1" opacity="0.5568627450980392" d="M 355.5 376 L 351.5 381 L 355.5 376 Z " /><path fill="rgb(0,0,0)" stroke="rgb(0,0,0)" stroke-width="1" opacity="0.5568627450980392" d="M 346.5 384 L 344.5 387 L 346.5 384 Z " /><path fill="rgb(0,0,0)" stroke="rgb(0,0,0)" stroke-width="1" opacity="0.5568627450980392" d="M 340.5 389 L 339.5 391 L 340.5 389 Z " /><path fill="rgb(0,0,0)" stroke="rgb(0,0,0)" stroke-width="1" opacity="0.5568627450980392" d="M 328.5 398 L 327.5 400 L 328.5 398 Z " /><path fill="rgb(0,0,0)" stroke="rgb(0,0,0)" stroke-width="1" opacity="0.5568627450980392" d="M 325.5 400 L 324.5 402 L 325.5 400 Z " /><path fill="rgb(0,0,0)" stroke="rgb(0,0,0)" stroke-width="1" opacity="0.5568627450980392" d="M 65.5 403 L 68 403.5 L 65.5 404 L 65.5 403 Z " /><path fill="rgb(0,0,0)" stroke="rgb(0,0,0)" stroke-width="1" opacity="0.5568627450980392" d="M 19.5 404 L 24 404.5 L 18.5 406 L 19.5 404 Z " /><path fill="rgb(0,0,0)" stroke="rgb(0,0,0)" stroke-width="1" opacity="0.5568627450980392" d="M 55.5 404 L 60 404.5 L 55.5 405 L 55.5 404 Z " /><path fill="rgb(0,0,0)" stroke="rgb(0,0,0)" stroke-width="1" opacity="0.5568627450980392" d="M 33.5 405 L 44 405.5 L 33.5 406 L 33.5 405 Z " /><path fill="rgb(0,0,0)" stroke="rgb(0,0,0)" stroke-width="1" opacity="0.5568627450980392" d="M 316.5 406 L 315.5 408 L 316.5 406 Z " /><path fill="rgb(0,0,0)" stroke="rgb(0,0,0)" stroke-width="1" opacity="0.5568627450980392" d="M 23.5 408 L 24.5 410 L 23.5 408 Z " /><path fill="rgb(0,0,0)" stroke="rgb(0,0,0)" stroke-width="1" opacity="0.5568627450980392" d="M 30.5 412 L 31.5 414 L 30.5 412 Z " /><path fill="rgb(0,0,0)" stroke="rgb(0,0,0)" stroke-width="1" opacity="0.5568627450980392" d="M 114.5 443 L 117 443.5 L 114.5 444 L 114.5 443 Z " /><path fill="rgb(0,0,0)" stroke="rgb(0,0,0)" stroke-width="1" opacity="0.5568627450980392" d="M 219.5 443 L 222 443.5 L 219.5 444 L 219.5 443 Z " /><path fill="rgb(0,0,0)" stroke="rgb(0,0,0)" stroke-width="1" opacity="0.5568627450980392" d="M 120.5 444 L 123 444.5 L 120.5 445 L 120.5 444 Z " /><path fill="rgb(0,0,0)" stroke="rgb(0,0,0)" stroke-width="1" opacity="0.5568627450980392" d="M 213.5 444 L 216 444.5 L 213.5 445 L 213.5 444 Z " /><path fill="rgb(0,0,0)" stroke="rgb(0,0,0)" stroke-width="1" opacity="0.5568627450980392" d="M 126.5 445 L 130 445.5 L 126.5 446 L 126.5 445 Z " /><path fill="rgb(0,0,0)" stroke="rgb(0,0,0)" stroke-width="1" opacity="0.5568627450980392" d="M 206.5 445 L 210 445.5 L 206.5 446 L 206.5 445 Z " /><path fill="rgb(0,0,0)" stroke="rgb(0,0,0)" stroke-width="1" opacity="0.5568627450980392" d="M 134.5 446 L 138 446.5 L 134.5 447 L 134.5 446 Z " /><path fill="rgb(0,0,0)" stroke="rgb(0,0,0)" stroke-width="1" opacity="0.5568627450980392" d="M 197.5 446 L 202 446.5 L 197.5 447 L 197.5 446 Z " /><path fill="rgb(0,0,0)" stroke="rgb(0,0,0)" stroke-width="1" opacity="0.5568627450980392" d="M 144.5 447 L 151 447.5 L 144.5 448 L 144.5 447 Z " /><path fill="rgb(0,0,0)" stroke="rgb(0,0,0)" stroke-width="1" opacity="0.5568627450980392" d="M 184.5 447 L 191 447.5 L 184.5 448 L 184.5 447 Z " /></svg>